<?xml version="1.0" standalone="no"?>
<!DOCTYPE svg PUBLIC "-//W3C//DTD SVG 20010904//EN"
 "http://www.w3.org/TR/2001/REC-SVG-20010904/DTD/svg10.dtd">
<svg version="1.0" xmlns="http://www.w3.org/2000/svg"
 width="260.000000pt" height="260.000000pt" viewBox="0 0 260.000000 260.000000"
 preserveAspectRatio="xMidYMid meet">
<metadata>
Created by potrace 1.14, written by Peter Selinger 2001-2017
</metadata>
<g transform="translate(0.000000,260.000000) scale(0.100000,-0.100000)"
fill="#000000" stroke="none">
<path d="M732 2590 c-205 -15 -316 -51 -440 -145 -122 -92 -217 -232 -252
-371 -30 -116 -40 -308 -40 -785 0 -436 9 -635 36 -748 54 -237 273 -452 514
-506 131 -29 352 -37 865 -32 497 5 574 10 695 47 145 44 306 177 387 321 92
162 108 326 100 1049 -5 523 -12 610 -61 729 -70 172 -250 342 -421 399 -33
11 -94 26 -135 32 -90 15 -1077 22 -1248 10z m612 -489 c-180 -51 -313 -170
-330 -293 -11 -76 26 -191 113 -356 187 -356 213 -419 213 -521 0 -86 -25
-147 -85 -208 -43 -43 -65 -55 -124 -73 -40 -12 -75 -20 -78 -17 -2 3 15 16
39 28 141 72 186 181 143 349 -20 76 -49 139 -166 360 -148 278 -169 385 -100
524 37 76 90 126 177 168 66 31 167 56 224 56 30 1 26 -2 -26 -17z m391 -48
l50 -18 -160 -6 c-101 -4 -177 -12 -207 -22 -143 -46 -208 -130 -208 -267 0
-74 22 -155 71 -265 78 -173 122 -280 135 -330 16 -58 18 -129 5 -120 -10 5
-53 85 -218 402 -117 226 -139 348 -82 462 46 91 136 151 274 181 67 15 283 4
340 -17z m74 -64 c112 -18 96 -25 -56 -24 -157 0 -210 -9 -295 -51 -70 -35
-88 -64 -88 -144 0 -95 17 -141 145 -401 121 -245 145 -317 145 -432 0 -120
-57 -246 -145 -319 -53 -45 -140 -87 -221 -110 -142 -38 -438 -24 -561 29 -61
25 -20 27 78 3 80 -20 108 -22 232 -17 202 8 306 42 406 133 78 69 119 192
106 316 -9 99 -28 154 -112 333 -113 240 -143 318 -155 405 -23 157 38 239
206 275 75 16 229 18 315 4z m-469 -1329 c-6 -10 -38 -32 -73 -48 -125 -60
-284 -77 -427 -47 -64 13 -127 41 -117 52 3 2 48 -3 101 -12 170 -27 312 -13
441 43 84 37 89 37 75 12z"/>
</g>
</svg>
