<svg width="24" height="25" viewBox="0 0 24 25" fill="none" xmlns="http://www.w3.org/2000/svg">
<g clip-path="url(#clip0_7_717)">
<path d="M22 6.11049C21.2642 6.43206 20.4733 6.64863 19.6433 6.74625C20.4908 6.24666 21.1417 5.45503 21.4475 4.51163C20.655 4.97431 19.7767 5.31065 18.8417 5.49195C18.0942 4.70688 17.0267 4.21631 15.8467 4.21631C13.1975 4.21631 11.2508 6.64945 11.8492 9.17529C8.44 9.00712 5.41667 7.39925 3.3925 4.95544C2.3175 6.77086 2.835 9.14576 4.66167 10.3484C3.99 10.327 3.35667 10.1458 2.80417 9.84305C2.75917 11.7142 4.12167 13.4649 6.095 13.8545C5.5175 14.0088 4.885 14.0448 4.24167 13.9234C4.76333 15.528 6.27833 16.6954 8.075 16.7282C6.35 18.0596 4.17667 18.6544 2 18.4017C3.81583 19.5477 5.97333 20.2163 8.29 20.2163C15.9083 20.2163 20.2125 13.8824 19.9525 8.20154C20.7542 7.6314 21.45 6.92017 22 6.11049Z" fill="black"/>
</g>
<defs>
<clipPath id="clip0_7_717">
<rect width="24" height="24" fill="white" transform="translate(0 0.216309)"/>
</clipPath>
</defs>
</svg>
