<svg width="24" height="25" viewBox="0 0 24 25" fill="none" xmlns="http://www.w3.org/2000/svg">
<g clip-path="url(#clip0_7_720)">
<path fill-rule="evenodd" clip-rule="evenodd" d="M12.8962 22.1767C17.9992 21.7235 22 17.4371 22 12.2163C22 6.69346 17.5228 2.21631 12 2.21631C6.47715 2.21631 2 6.69346 2 12.2163C2 17.0642 5.44966 21.1063 10.0282 22.022V14.8043H7.625V11.9152H10.0282V9.78373C10.0282 7.31058 11.4801 5.96631 13.6043 5.96631C14.6199 5.96631 15.4925 6.04058 15.75 6.07772V8.66969H14.2766C13.118 8.66969 12.8962 9.23414 12.8962 10.0734V11.9152H15.6499L15.2923 14.8043H12.8962V22.1767Z" fill="black"/>
</g>
<defs>
<clipPath id="clip0_7_720">
<rect width="24" height="24" fill="white" transform="translate(0 0.216309)"/>
</clipPath>
</defs>
</svg>
