<svg width="24" height="25" viewBox="0 0 24 25" fill="none" xmlns="http://www.w3.org/2000/svg">
<g clip-path="url(#clip0_7_723)">
<path d="M19.0002 2.21631H5C3 2.21631 2 3.21631 2 5.21631L2.00059 19.2163C2.00059 21.2163 3.00021 22.2163 5.00021 22.2163H19.0002C21.0002 22.2163 22.0002 21.2163 22.0002 19.2163V5.21631C22.0002 3.21631 21.0002 2.21631 19.0002 2.21631ZM8.66687 18.0497H6.16687V8.88298H8.66687V18.0497ZM7.41687 7.82631C6.61187 7.82631 5.95854 7.16798 5.95854 6.35631C5.95854 5.54464 6.61187 4.88631 7.41687 4.88631C8.22187 4.88631 8.87521 5.54464 8.87521 6.35631C8.87521 7.16798 8.22271 7.82631 7.41687 7.82631ZM18.6669 18.0497H16.1669V13.3797C16.1669 10.573 12.8335 10.7855 12.8335 13.3797V18.0497H10.3335V8.88298H12.8335V10.3538C13.9969 8.19881 18.6669 8.03965 18.6669 12.4172V18.0497Z" fill="black"/>
</g>
<defs>
<clipPath id="clip0_7_723">
<rect width="24" height="24" fill="white" transform="translate(0 0.216309)"/>
</clipPath>
</defs>
</svg>
