<svg width="24" height="25" viewBox="0 0 24 25" fill="none" xmlns="http://www.w3.org/2000/svg">
<g clip-path="url(#clip0_7_729)">
<path d="M22.9991 9.92629C23.0485 8.49495 22.7355 7.07431 22.0891 5.79629C21.6505 5.27189 21.0418 4.918 20.3691 4.79629C17.5866 4.54382 14.7926 4.44034 11.9991 4.48629C9.2157 4.43825 6.43176 4.53839 3.65905 4.78629C3.11087 4.88601 2.60357 5.14314 2.19905 5.52629C1.29905 6.35629 1.19905 7.77629 1.09905 8.97629C0.953962 11.1338 0.953962 13.2987 1.09905 15.4563C1.12798 16.1317 1.22854 16.8021 1.39905 17.4563C1.51963 17.9613 1.76357 18.4286 2.10905 18.8163C2.51632 19.2197 3.03543 19.4915 3.59905 19.5963C5.75497 19.8624 7.92727 19.9727 10.0991 19.9263C13.5991 19.9763 16.669 19.9263 20.299 19.6463C20.8765 19.5479 21.4102 19.2758 21.8291 18.8663C22.109 18.5862 22.3181 18.2434 22.4391 17.8663C22.7967 16.7689 22.9723 15.6204 22.959 14.4663C22.9991 13.9063 22.9991 10.5263 22.9991 9.92629ZM9.73905 15.0663V8.87629L15.659 11.9863C13.9991 12.9063 11.809 13.9463 9.73905 15.0663Z" fill="black"/>
</g>
<defs>
<clipPath id="clip0_7_729">
<rect width="24" height="24" fill="white" transform="translate(0 0.216309)"/>
</clipPath>
</defs>
</svg>
